%TF.GenerationSoftware,KiCad,Pcbnew,9.0.7*%
%TF.CreationDate,2026-03-14T00:34:12-04:00*%
%TF.ProjectId,sdvx_proto,73647678-5f70-4726-9f74-6f2e6b696361,rev?*%
%TF.SameCoordinates,Original*%
%TF.FileFunction,Copper,L2,Bot*%
%TF.FilePolarity,Positive*%
%FSLAX46Y46*%
G04 Gerber Fmt 4.6, Leading zero omitted, Abs format (unit mm)*
G04 Created by KiCad (PCBNEW 9.0.7) date 2026-03-14 00:34:12*
%MOMM*%
%LPD*%
G01*
G04 APERTURE LIST*
%TA.AperFunction,ComponentPad*%
%ADD10R,2.000000X2.000000*%
%TD*%
%TA.AperFunction,ComponentPad*%
%ADD11C,2.000000*%
%TD*%
%TA.AperFunction,ComponentPad*%
%ADD12R,3.200000X2.000000*%
%TD*%
%TA.AperFunction,ComponentPad*%
%ADD13R,1.700000X1.700000*%
%TD*%
%TA.AperFunction,ComponentPad*%
%ADD14C,1.700000*%
%TD*%
%TA.AperFunction,ComponentPad*%
%ADD15C,2.300000*%
%TD*%
%TA.AperFunction,Conductor*%
%ADD16C,0.200000*%
%TD*%
G04 APERTURE END LIST*
D10*
%TO.P,SW8,A,A*%
%TO.N,/GP21*%
X203000000Y-31000000D03*
D11*
%TO.P,SW8,B,B*%
%TO.N,/GP20*%
X203000000Y-36000000D03*
%TO.P,SW8,C,C*%
%TO.N,GND*%
X203000000Y-33500000D03*
D12*
%TO.P,SW8,MP*%
%TO.N,N/C*%
X210500000Y-27900000D03*
X210500000Y-39100000D03*
D11*
%TO.P,SW8,S1,S1*%
%TO.N,/GP19*%
X217500000Y-36000000D03*
%TO.P,SW8,S2,S2*%
%TO.N,GND*%
X217500000Y-31000000D03*
%TD*%
D13*
%TO.P,J2,1,Pin_1*%
%TO.N,/GP26*%
X225000000Y-136000000D03*
D14*
%TO.P,J2,2,Pin_2*%
%TO.N,/GP27*%
X225000000Y-138540000D03*
%TO.P,J2,3,Pin_3*%
%TO.N,/GP28*%
X225000000Y-141080000D03*
%TO.P,J2,4,Pin_4*%
%TO.N,/GP19*%
X225000000Y-143620000D03*
%TO.P,J2,5,Pin_5*%
%TO.N,/GP20*%
X225000000Y-146160000D03*
%TO.P,J2,6,Pin_6*%
%TO.N,/GP21*%
X225000000Y-148700000D03*
%TO.P,J2,7,Pin_7*%
%TO.N,GND*%
X225000000Y-151240000D03*
%TO.P,J2,8,Pin_8*%
X225000000Y-153780000D03*
%TO.P,J2,9,Pin_9*%
X225000000Y-156320000D03*
%TO.P,J2,10,Pin_10*%
%TO.N,+3V3*%
X225000000Y-158860000D03*
%TD*%
D15*
%TO.P,SW6,1,1*%
%TO.N,/GP27*%
X196190000Y-81460000D03*
%TO.P,SW6,2,2*%
%TO.N,GND*%
X202540000Y-78920000D03*
%TD*%
%TO.P,SW3,1,1*%
%TO.N,/GP4*%
X122190000Y-81460000D03*
%TO.P,SW3,2,2*%
%TO.N,GND*%
X128540000Y-78920000D03*
%TD*%
D10*
%TO.P,SW7,A,A*%
%TO.N,/GP10*%
X71000000Y-31000000D03*
D11*
%TO.P,SW7,B,B*%
%TO.N,/GP11*%
X71000000Y-36000000D03*
%TO.P,SW7,C,C*%
%TO.N,GND*%
X71000000Y-33500000D03*
D12*
%TO.P,SW7,MP*%
%TO.N,N/C*%
X78500000Y-27900000D03*
X78500000Y-39100000D03*
D11*
%TO.P,SW7,S1,S1*%
%TO.N,/GP12*%
X85500000Y-36000000D03*
%TO.P,SW7,S2,S2*%
%TO.N,GND*%
X85500000Y-31000000D03*
%TD*%
D15*
%TO.P,SW4,1,1*%
%TO.N,/GP5*%
X103190000Y-132460000D03*
%TO.P,SW4,2,2*%
%TO.N,GND*%
X109540000Y-129920000D03*
%TD*%
%TO.P,SW5,1,1*%
%TO.N,/GP28*%
X158190000Y-81460000D03*
%TO.P,SW5,2,2*%
%TO.N,GND*%
X164540000Y-78920000D03*
%TD*%
%TO.P,SW9,1,1*%
%TO.N,/GP26*%
X177190000Y-132460000D03*
%TO.P,SW9,2,2*%
%TO.N,GND*%
X183540000Y-129920000D03*
%TD*%
D13*
%TO.P,J1,1,Pin_1*%
%TO.N,/GP0*%
X64000000Y-135000000D03*
D14*
%TO.P,J1,2,Pin_2*%
%TO.N,/GP3*%
X64000000Y-137540000D03*
%TO.P,J1,3,Pin_3*%
%TO.N,/GP4*%
X64000000Y-140080000D03*
%TO.P,J1,4,Pin_4*%
%TO.N,/GP5*%
X64000000Y-142620000D03*
%TO.P,J1,5,Pin_5*%
%TO.N,/GP10*%
X64000000Y-145160000D03*
%TO.P,J1,6,Pin_6*%
%TO.N,/GP11*%
X64000000Y-147700000D03*
%TO.P,J1,7,Pin_7*%
%TO.N,/GP12*%
X64000000Y-150240000D03*
%TO.P,J1,8,Pin_8*%
%TO.N,GND*%
X64000000Y-152780000D03*
%TO.P,J1,9,Pin_9*%
X64000000Y-155320000D03*
%TO.P,J1,10,Pin_10*%
X64000000Y-157860000D03*
%TD*%
D15*
%TO.P,SW2,1,1*%
%TO.N,/GP3*%
X84190000Y-81460000D03*
%TO.P,SW2,2,2*%
%TO.N,GND*%
X90540000Y-78920000D03*
%TD*%
%TO.P,SW1,1,1*%
%TO.N,/GP0*%
X149810000Y-30460000D03*
%TO.P,SW1,2,2*%
%TO.N,GND*%
X143460000Y-27920000D03*
%TD*%
D16*
%TO.N,/GP19*%
X217620000Y-151000000D02*
X225000000Y-143620000D01*
X157000000Y-151000000D02*
X217620000Y-151000000D01*
X154000000Y-148000000D02*
X157000000Y-151000000D01*
X154000000Y-102000000D02*
X154000000Y-148000000D01*
X157000000Y-99000000D02*
X154000000Y-102000000D01*
X172000000Y-99000000D02*
X157000000Y-99000000D01*
X178000000Y-93000000D02*
X172000000Y-99000000D01*
X178000000Y-38000000D02*
X178000000Y-93000000D01*
X181000000Y-35000000D02*
X178000000Y-38000000D01*
X197000000Y-35000000D02*
X181000000Y-35000000D01*
X199000000Y-37000000D02*
X197000000Y-35000000D01*
X199000000Y-43000000D02*
X199000000Y-37000000D01*
X201000000Y-45000000D02*
X199000000Y-43000000D01*
X221000000Y-45000000D02*
X201000000Y-45000000D01*
X221000000Y-39500000D02*
X221000000Y-45000000D01*
X217500000Y-36000000D02*
X221000000Y-39500000D01*
%TO.N,/GP20*%
X218160000Y-153000000D02*
X225000000Y-146160000D01*
X155000000Y-153000000D02*
X218160000Y-153000000D01*
X153000000Y-151000000D02*
X155000000Y-153000000D01*
X153000000Y-100000000D02*
X153000000Y-151000000D01*
X156000000Y-97000000D02*
X153000000Y-100000000D01*
X172000000Y-97000000D02*
X156000000Y-97000000D01*
X176000000Y-93000000D02*
X172000000Y-97000000D01*
X176000000Y-36000000D02*
X176000000Y-93000000D01*
X179000000Y-33000000D02*
X176000000Y-36000000D01*
X200000000Y-33000000D02*
X179000000Y-33000000D01*
X203000000Y-36000000D02*
X200000000Y-33000000D01*
%TO.N,/GP21*%
X178000000Y-31000000D02*
X203000000Y-31000000D01*
X174000000Y-35000000D02*
X178000000Y-31000000D01*
X174000000Y-93000000D02*
X174000000Y-35000000D01*
X171000000Y-96000000D02*
X174000000Y-93000000D01*
X155000000Y-96000000D02*
X171000000Y-96000000D01*
X152000000Y-152000000D02*
X152000000Y-99000000D01*
X154000000Y-154000000D02*
X152000000Y-152000000D01*
X152000000Y-99000000D02*
X155000000Y-96000000D01*
X219700000Y-154000000D02*
X154000000Y-154000000D01*
X225000000Y-148700000D02*
X219700000Y-154000000D01*
%TO.N,/GP26*%
X205000000Y-136000000D02*
X225000000Y-136000000D01*
X201460000Y-132460000D02*
X205000000Y-136000000D01*
X177190000Y-132460000D02*
X201460000Y-132460000D01*
%TO.N,/GP11*%
X74000000Y-42000000D02*
X75000000Y-43000000D01*
X68000000Y-42000000D02*
X74000000Y-42000000D01*
X75000000Y-43000000D02*
X75000000Y-136700000D01*
%TO.N,/GP12*%
X77000000Y-137240000D02*
X64000000Y-150240000D01*
X78000000Y-44000000D02*
X77000000Y-45000000D01*
X88000000Y-44000000D02*
X78000000Y-44000000D01*
X86000000Y-36000000D02*
X88000000Y-38000000D01*
X85500000Y-36000000D02*
X86000000Y-36000000D01*
X88000000Y-38000000D02*
X88000000Y-44000000D01*
X77000000Y-45000000D02*
X77000000Y-137240000D01*
%TO.N,/GP11*%
X68000000Y-39000000D02*
X68000000Y-42000000D01*
X71000000Y-36000000D02*
X68000000Y-39000000D01*
%TO.N,/GP10*%
X73000000Y-136160000D02*
X64000000Y-145160000D01*
X73000000Y-44000000D02*
X73000000Y-136160000D01*
X72000000Y-43000000D02*
X73000000Y-44000000D01*
X67000000Y-43000000D02*
X72000000Y-43000000D01*
X67000000Y-35000000D02*
X67000000Y-43000000D01*
X71000000Y-31000000D02*
X67000000Y-35000000D01*
%TO.N,/GP11*%
X75000000Y-136700000D02*
X64000000Y-147700000D01*
%TD*%
M02*
