%TF.GenerationSoftware,KiCad,Pcbnew,9.0.7*%
%TF.CreationDate,2026-03-14T00:34:12-04:00*%
%TF.ProjectId,sdvx_proto,73647678-5f70-4726-9f74-6f2e6b696361,rev?*%
%TF.SameCoordinates,Original*%
%TF.FileFunction,Soldermask,Top*%
%TF.FilePolarity,Negative*%
%FSLAX46Y46*%
G04 Gerber Fmt 4.6, Leading zero omitted, Abs format (unit mm)*
G04 Created by KiCad (PCBNEW 9.0.7) date 2026-03-14 00:34:12*
%MOMM*%
%LPD*%
G01*
G04 APERTURE LIST*
%ADD10R,2.000000X2.000000*%
%ADD11C,2.000000*%
%ADD12R,3.200000X2.000000*%
%ADD13R,1.700000X1.700000*%
%ADD14C,1.700000*%
%ADD15C,1.701800*%
%ADD16C,3.987800*%
%ADD17C,2.300000*%
G04 APERTURE END LIST*
D10*
%TO.C,SW8*%
X203000000Y-31000000D03*
D11*
X203000000Y-36000000D03*
X203000000Y-33500000D03*
D12*
X210500000Y-27900000D03*
X210500000Y-39100000D03*
D11*
X217500000Y-36000000D03*
X217500000Y-31000000D03*
%TD*%
D13*
%TO.C,J2*%
X225000000Y-136000000D03*
D14*
X225000000Y-138540000D03*
X225000000Y-141080000D03*
X225000000Y-143620000D03*
X225000000Y-146160000D03*
X225000000Y-148700000D03*
X225000000Y-151240000D03*
X225000000Y-153780000D03*
X225000000Y-156320000D03*
X225000000Y-158860000D03*
%TD*%
D15*
%TO.C,SW6*%
X194920000Y-84000000D03*
D16*
X200000000Y-84000000D03*
D15*
X205080000Y-84000000D03*
%TD*%
%TO.C,SW3*%
X120920000Y-84000000D03*
D16*
X126000000Y-84000000D03*
D15*
X131080000Y-84000000D03*
%TD*%
D10*
%TO.C,SW7*%
X71000000Y-31000000D03*
D11*
X71000000Y-36000000D03*
X71000000Y-33500000D03*
D12*
X78500000Y-27900000D03*
X78500000Y-39100000D03*
D11*
X85500000Y-36000000D03*
X85500000Y-31000000D03*
%TD*%
D15*
%TO.C,SW4*%
X101920000Y-135000000D03*
D16*
X107000000Y-135000000D03*
D15*
X112080000Y-135000000D03*
%TD*%
%TO.C,SW5*%
X156920000Y-84000000D03*
D16*
X162000000Y-84000000D03*
D15*
X167080000Y-84000000D03*
%TD*%
%TO.C,SW9*%
X175920000Y-135000000D03*
D16*
X181000000Y-135000000D03*
D15*
X186080000Y-135000000D03*
%TD*%
D13*
%TO.C,J1*%
X64000000Y-135000000D03*
D14*
X64000000Y-137540000D03*
X64000000Y-140080000D03*
X64000000Y-142620000D03*
X64000000Y-145160000D03*
X64000000Y-147700000D03*
X64000000Y-150240000D03*
X64000000Y-152780000D03*
X64000000Y-155320000D03*
X64000000Y-157860000D03*
%TD*%
D15*
%TO.C,SW2*%
X82920000Y-84000000D03*
D16*
X88000000Y-84000000D03*
D15*
X93080000Y-84000000D03*
%TD*%
%TO.C,SW1*%
X151080000Y-33000000D03*
D16*
X146000000Y-33000000D03*
D15*
X140920000Y-33000000D03*
D17*
X149810000Y-30460000D03*
X143460000Y-27920000D03*
%TD*%
M02*
