%TF.GenerationSoftware,KiCad,Pcbnew,9.0.7*%
%TF.CreationDate,2026-03-14T00:34:12-04:00*%
%TF.ProjectId,sdvx_proto,73647678-5f70-4726-9f74-6f2e6b696361,rev?*%
%TF.SameCoordinates,Original*%
%TF.FileFunction,Copper,L1,Top*%
%TF.FilePolarity,Positive*%
%FSLAX46Y46*%
G04 Gerber Fmt 4.6, Leading zero omitted, Abs format (unit mm)*
G04 Created by KiCad (PCBNEW 9.0.7) date 2026-03-14 00:34:12*
%MOMM*%
%LPD*%
G01*
G04 APERTURE LIST*
%TA.AperFunction,ComponentPad*%
%ADD10R,2.000000X2.000000*%
%TD*%
%TA.AperFunction,ComponentPad*%
%ADD11C,2.000000*%
%TD*%
%TA.AperFunction,ComponentPad*%
%ADD12R,3.200000X2.000000*%
%TD*%
%TA.AperFunction,ComponentPad*%
%ADD13R,1.700000X1.700000*%
%TD*%
%TA.AperFunction,ComponentPad*%
%ADD14C,1.700000*%
%TD*%
%TA.AperFunction,ComponentPad*%
%ADD15C,2.300000*%
%TD*%
%TA.AperFunction,Conductor*%
%ADD16C,0.200000*%
%TD*%
G04 APERTURE END LIST*
D10*
%TO.P,SW8,A,A*%
%TO.N,/GP21*%
X203000000Y-31000000D03*
D11*
%TO.P,SW8,B,B*%
%TO.N,/GP20*%
X203000000Y-36000000D03*
%TO.P,SW8,C,C*%
%TO.N,GND*%
X203000000Y-33500000D03*
D12*
%TO.P,SW8,MP*%
%TO.N,N/C*%
X210500000Y-27900000D03*
X210500000Y-39100000D03*
D11*
%TO.P,SW8,S1,S1*%
%TO.N,/GP19*%
X217500000Y-36000000D03*
%TO.P,SW8,S2,S2*%
%TO.N,GND*%
X217500000Y-31000000D03*
%TD*%
D13*
%TO.P,J2,1,Pin_1*%
%TO.N,/GP26*%
X225000000Y-136000000D03*
D14*
%TO.P,J2,2,Pin_2*%
%TO.N,/GP27*%
X225000000Y-138540000D03*
%TO.P,J2,3,Pin_3*%
%TO.N,/GP28*%
X225000000Y-141080000D03*
%TO.P,J2,4,Pin_4*%
%TO.N,/GP19*%
X225000000Y-143620000D03*
%TO.P,J2,5,Pin_5*%
%TO.N,/GP20*%
X225000000Y-146160000D03*
%TO.P,J2,6,Pin_6*%
%TO.N,/GP21*%
X225000000Y-148700000D03*
%TO.P,J2,7,Pin_7*%
%TO.N,GND*%
X225000000Y-151240000D03*
%TO.P,J2,8,Pin_8*%
X225000000Y-153780000D03*
%TO.P,J2,9,Pin_9*%
X225000000Y-156320000D03*
%TO.P,J2,10,Pin_10*%
%TO.N,+3V3*%
X225000000Y-158860000D03*
%TD*%
D15*
%TO.P,SW6,1,1*%
%TO.N,/GP27*%
X196190000Y-81460000D03*
%TO.P,SW6,2,2*%
%TO.N,GND*%
X202540000Y-78920000D03*
%TD*%
%TO.P,SW3,1,1*%
%TO.N,/GP4*%
X122190000Y-81460000D03*
%TO.P,SW3,2,2*%
%TO.N,GND*%
X128540000Y-78920000D03*
%TD*%
D10*
%TO.P,SW7,A,A*%
%TO.N,/GP10*%
X71000000Y-31000000D03*
D11*
%TO.P,SW7,B,B*%
%TO.N,/GP11*%
X71000000Y-36000000D03*
%TO.P,SW7,C,C*%
%TO.N,GND*%
X71000000Y-33500000D03*
D12*
%TO.P,SW7,MP*%
%TO.N,N/C*%
X78500000Y-27900000D03*
X78500000Y-39100000D03*
D11*
%TO.P,SW7,S1,S1*%
%TO.N,/GP12*%
X85500000Y-36000000D03*
%TO.P,SW7,S2,S2*%
%TO.N,GND*%
X85500000Y-31000000D03*
%TD*%
D15*
%TO.P,SW4,1,1*%
%TO.N,/GP5*%
X103190000Y-132460000D03*
%TO.P,SW4,2,2*%
%TO.N,GND*%
X109540000Y-129920000D03*
%TD*%
%TO.P,SW5,1,1*%
%TO.N,/GP28*%
X158190000Y-81460000D03*
%TO.P,SW5,2,2*%
%TO.N,GND*%
X164540000Y-78920000D03*
%TD*%
%TO.P,SW9,1,1*%
%TO.N,/GP26*%
X177190000Y-132460000D03*
%TO.P,SW9,2,2*%
%TO.N,GND*%
X183540000Y-129920000D03*
%TD*%
D13*
%TO.P,J1,1,Pin_1*%
%TO.N,/GP0*%
X64000000Y-135000000D03*
D14*
%TO.P,J1,2,Pin_2*%
%TO.N,/GP3*%
X64000000Y-137540000D03*
%TO.P,J1,3,Pin_3*%
%TO.N,/GP4*%
X64000000Y-140080000D03*
%TO.P,J1,4,Pin_4*%
%TO.N,/GP5*%
X64000000Y-142620000D03*
%TO.P,J1,5,Pin_5*%
%TO.N,/GP10*%
X64000000Y-145160000D03*
%TO.P,J1,6,Pin_6*%
%TO.N,/GP11*%
X64000000Y-147700000D03*
%TO.P,J1,7,Pin_7*%
%TO.N,/GP12*%
X64000000Y-150240000D03*
%TO.P,J1,8,Pin_8*%
%TO.N,GND*%
X64000000Y-152780000D03*
%TO.P,J1,9,Pin_9*%
X64000000Y-155320000D03*
%TO.P,J1,10,Pin_10*%
X64000000Y-157860000D03*
%TD*%
D15*
%TO.P,SW2,1,1*%
%TO.N,/GP3*%
X84190000Y-81460000D03*
%TO.P,SW2,2,2*%
%TO.N,GND*%
X90540000Y-78920000D03*
%TD*%
%TO.P,SW1,1,1*%
%TO.N,/GP0*%
X149810000Y-30460000D03*
%TO.P,SW1,2,2*%
%TO.N,GND*%
X143460000Y-27920000D03*
%TD*%
D16*
%TO.N,GND*%
X136000000Y-72000000D02*
X151000000Y-72000000D01*
%TO.N,/GP27*%
X200540000Y-138540000D02*
X195000000Y-133000000D01*
X225000000Y-138540000D02*
X200540000Y-138540000D01*
X195000000Y-133000000D02*
X195000000Y-114000000D01*
X190540000Y-81460000D02*
X196190000Y-81460000D01*
X189000000Y-83000000D02*
X190540000Y-81460000D01*
X195000000Y-114000000D02*
X189000000Y-108000000D01*
X189000000Y-108000000D02*
X189000000Y-83000000D01*
%TO.N,/GP28*%
X198080000Y-141080000D02*
X225000000Y-141080000D01*
X193000000Y-136000000D02*
X198080000Y-141080000D01*
X193000000Y-116000000D02*
X193000000Y-136000000D01*
X185000000Y-108000000D02*
X193000000Y-116000000D01*
X165000000Y-108000000D02*
X185000000Y-108000000D01*
X158190000Y-101190000D02*
X165000000Y-108000000D01*
X158190000Y-81460000D02*
X158190000Y-101190000D01*
%TO.N,GND*%
X203000000Y-33500000D02*
X200000000Y-30500000D01*
X152080000Y-129920000D02*
X151000000Y-131000000D01*
X151000000Y-131000000D02*
X151000000Y-154000000D01*
X183540000Y-129920000D02*
X152080000Y-129920000D01*
X151000000Y-72000000D02*
X151000000Y-122000000D01*
X202000000Y-72000000D02*
X163000000Y-72000000D01*
X202540000Y-72540000D02*
X202000000Y-72000000D01*
X202540000Y-78920000D02*
X202540000Y-72540000D01*
X164540000Y-73540000D02*
X163000000Y-72000000D01*
X163000000Y-72000000D02*
X151000000Y-72000000D01*
X164540000Y-78920000D02*
X164540000Y-73540000D01*
X151000000Y-122000000D02*
X151000000Y-131000000D01*
X200000000Y-30500000D02*
X200000000Y-20000000D01*
X200000000Y-20000000D02*
X164000000Y-20000000D01*
X153320000Y-156320000D02*
X225000000Y-156320000D01*
X151000000Y-154000000D02*
X153320000Y-156320000D01*
X151000000Y-50000000D02*
X151000000Y-72000000D01*
X158000000Y-43000000D02*
X151000000Y-50000000D01*
X158000000Y-26000000D02*
X158000000Y-43000000D01*
X164000000Y-20000000D02*
X158000000Y-26000000D01*
X220000000Y-20000000D02*
X200000000Y-20000000D01*
X222000000Y-22000000D02*
X220000000Y-20000000D01*
X222000000Y-31000000D02*
X222000000Y-22000000D01*
X217500000Y-31000000D02*
X222000000Y-31000000D01*
%TO.N,/GP0*%
X149810000Y-30460000D02*
X149810000Y-20810000D01*
X149000000Y-20000000D02*
X68000000Y-20000000D01*
X149810000Y-20810000D02*
X149000000Y-20000000D01*
%TO.N,GND*%
X130000000Y-158000000D02*
X137000000Y-151000000D01*
X112780000Y-158000000D02*
X130000000Y-158000000D01*
X119000000Y-151780000D02*
X112780000Y-158000000D01*
X118000000Y-124000000D02*
X119000000Y-125000000D01*
X112780000Y-158000000D02*
X64140000Y-158000000D01*
X110000000Y-124000000D02*
X118000000Y-124000000D01*
X64140000Y-158000000D02*
X64000000Y-157860000D01*
X109540000Y-124460000D02*
X110000000Y-124000000D01*
X109540000Y-129920000D02*
X109540000Y-124460000D01*
X119000000Y-125000000D02*
X119000000Y-151780000D01*
X137000000Y-73000000D02*
X137000000Y-151000000D01*
X136000000Y-72000000D02*
X137000000Y-73000000D01*
X128540000Y-72000000D02*
X136000000Y-72000000D01*
X91000000Y-22000000D02*
X129000000Y-22000000D01*
X128540000Y-72000000D02*
X128540000Y-73540000D01*
X90540000Y-22460000D02*
X91000000Y-22000000D01*
X90540000Y-36040000D02*
X90540000Y-22460000D01*
X90540000Y-36040000D02*
X85500000Y-31000000D01*
X90540000Y-78920000D02*
X90540000Y-36040000D01*
X69000000Y-22000000D02*
X91000000Y-22000000D01*
X67000000Y-24000000D02*
X69000000Y-22000000D01*
X67000000Y-33000000D02*
X67000000Y-24000000D01*
X67500000Y-33500000D02*
X67000000Y-33000000D01*
X71000000Y-33500000D02*
X67500000Y-33500000D01*
%TO.N,/GP3*%
X71000000Y-130540000D02*
X64000000Y-137540000D01*
X71000000Y-83000000D02*
X71000000Y-130540000D01*
X72540000Y-81460000D02*
X71000000Y-83000000D01*
X84190000Y-81460000D02*
X72540000Y-81460000D01*
%TO.N,/GP4*%
X93920000Y-140080000D02*
X64000000Y-140080000D01*
X94000000Y-140000000D02*
X93920000Y-140080000D01*
X94000000Y-127000000D02*
X94000000Y-140000000D01*
X99000000Y-122000000D02*
X94000000Y-127000000D01*
X115000000Y-122000000D02*
X99000000Y-122000000D01*
X115000000Y-87023655D02*
X115000000Y-122000000D01*
X120563655Y-81460000D02*
X115000000Y-87023655D01*
X122190000Y-81460000D02*
X120563655Y-81460000D01*
%TO.N,/GP5*%
X95380000Y-142620000D02*
X64000000Y-142620000D01*
X96000000Y-142000000D02*
X95380000Y-142620000D01*
X96000000Y-134000000D02*
X96000000Y-142000000D01*
X97540000Y-132460000D02*
X96000000Y-134000000D01*
X103190000Y-132460000D02*
X97540000Y-132460000D01*
%TO.N,/GP0*%
X64000000Y-24000000D02*
X64000000Y-135000000D01*
X68000000Y-20000000D02*
X64000000Y-24000000D01*
%TO.N,GND*%
X143460000Y-27920000D02*
X143460000Y-22460000D01*
X225000000Y-151240000D02*
X225000000Y-156320000D01*
X143460000Y-22460000D02*
X143000000Y-22000000D01*
X128540000Y-78920000D02*
X128540000Y-73540000D01*
X143000000Y-22000000D02*
X130000000Y-22000000D01*
X64000000Y-152780000D02*
X64000000Y-157860000D01*
X129000000Y-22000000D02*
X130000000Y-22000000D01*
X128540000Y-72000000D02*
X128540000Y-22460000D01*
X128540000Y-22460000D02*
X129000000Y-22000000D01*
%TD*%
M02*
