%TF.GenerationSoftware,KiCad,Pcbnew,9.0.7*%
%TF.CreationDate,2026-03-14T00:34:12-04:00*%
%TF.ProjectId,sdvx_proto,73647678-5f70-4726-9f74-6f2e6b696361,rev?*%
%TF.SameCoordinates,Original*%
%TF.FileFunction,Legend,Top*%
%TF.FilePolarity,Positive*%
%FSLAX46Y46*%
G04 Gerber Fmt 4.6, Leading zero omitted, Abs format (unit mm)*
G04 Created by KiCad (PCBNEW 9.0.7) date 2026-03-14 00:34:12*
%MOMM*%
%LPD*%
G01*
G04 APERTURE LIST*
%ADD10C,0.150000*%
%ADD11C,0.120000*%
G04 APERTURE END LIST*
D10*
X204466667Y-26707200D02*
X204609524Y-26754819D01*
X204609524Y-26754819D02*
X204847619Y-26754819D01*
X204847619Y-26754819D02*
X204942857Y-26707200D01*
X204942857Y-26707200D02*
X204990476Y-26659580D01*
X204990476Y-26659580D02*
X205038095Y-26564342D01*
X205038095Y-26564342D02*
X205038095Y-26469104D01*
X205038095Y-26469104D02*
X204990476Y-26373866D01*
X204990476Y-26373866D02*
X204942857Y-26326247D01*
X204942857Y-26326247D02*
X204847619Y-26278628D01*
X204847619Y-26278628D02*
X204657143Y-26231009D01*
X204657143Y-26231009D02*
X204561905Y-26183390D01*
X204561905Y-26183390D02*
X204514286Y-26135771D01*
X204514286Y-26135771D02*
X204466667Y-26040533D01*
X204466667Y-26040533D02*
X204466667Y-25945295D01*
X204466667Y-25945295D02*
X204514286Y-25850057D01*
X204514286Y-25850057D02*
X204561905Y-25802438D01*
X204561905Y-25802438D02*
X204657143Y-25754819D01*
X204657143Y-25754819D02*
X204895238Y-25754819D01*
X204895238Y-25754819D02*
X205038095Y-25802438D01*
X205371429Y-25754819D02*
X205609524Y-26754819D01*
X205609524Y-26754819D02*
X205800000Y-26040533D01*
X205800000Y-26040533D02*
X205990476Y-26754819D01*
X205990476Y-26754819D02*
X206228572Y-25754819D01*
X206752381Y-26183390D02*
X206657143Y-26135771D01*
X206657143Y-26135771D02*
X206609524Y-26088152D01*
X206609524Y-26088152D02*
X206561905Y-25992914D01*
X206561905Y-25992914D02*
X206561905Y-25945295D01*
X206561905Y-25945295D02*
X206609524Y-25850057D01*
X206609524Y-25850057D02*
X206657143Y-25802438D01*
X206657143Y-25802438D02*
X206752381Y-25754819D01*
X206752381Y-25754819D02*
X206942857Y-25754819D01*
X206942857Y-25754819D02*
X207038095Y-25802438D01*
X207038095Y-25802438D02*
X207085714Y-25850057D01*
X207085714Y-25850057D02*
X207133333Y-25945295D01*
X207133333Y-25945295D02*
X207133333Y-25992914D01*
X207133333Y-25992914D02*
X207085714Y-26088152D01*
X207085714Y-26088152D02*
X207038095Y-26135771D01*
X207038095Y-26135771D02*
X206942857Y-26183390D01*
X206942857Y-26183390D02*
X206752381Y-26183390D01*
X206752381Y-26183390D02*
X206657143Y-26231009D01*
X206657143Y-26231009D02*
X206609524Y-26278628D01*
X206609524Y-26278628D02*
X206561905Y-26373866D01*
X206561905Y-26373866D02*
X206561905Y-26564342D01*
X206561905Y-26564342D02*
X206609524Y-26659580D01*
X206609524Y-26659580D02*
X206657143Y-26707200D01*
X206657143Y-26707200D02*
X206752381Y-26754819D01*
X206752381Y-26754819D02*
X206942857Y-26754819D01*
X206942857Y-26754819D02*
X207038095Y-26707200D01*
X207038095Y-26707200D02*
X207085714Y-26659580D01*
X207085714Y-26659580D02*
X207133333Y-26564342D01*
X207133333Y-26564342D02*
X207133333Y-26373866D01*
X207133333Y-26373866D02*
X207085714Y-26278628D01*
X207085714Y-26278628D02*
X207038095Y-26231009D01*
X207038095Y-26231009D02*
X206942857Y-26183390D01*
X224666666Y-133074819D02*
X224666666Y-133789104D01*
X224666666Y-133789104D02*
X224619047Y-133931961D01*
X224619047Y-133931961D02*
X224523809Y-134027200D01*
X224523809Y-134027200D02*
X224380952Y-134074819D01*
X224380952Y-134074819D02*
X224285714Y-134074819D01*
X225095238Y-133170057D02*
X225142857Y-133122438D01*
X225142857Y-133122438D02*
X225238095Y-133074819D01*
X225238095Y-133074819D02*
X225476190Y-133074819D01*
X225476190Y-133074819D02*
X225571428Y-133122438D01*
X225571428Y-133122438D02*
X225619047Y-133170057D01*
X225619047Y-133170057D02*
X225666666Y-133265295D01*
X225666666Y-133265295D02*
X225666666Y-133360533D01*
X225666666Y-133360533D02*
X225619047Y-133503390D01*
X225619047Y-133503390D02*
X225047619Y-134074819D01*
X225047619Y-134074819D02*
X225666666Y-134074819D01*
X72466667Y-26707200D02*
X72609524Y-26754819D01*
X72609524Y-26754819D02*
X72847619Y-26754819D01*
X72847619Y-26754819D02*
X72942857Y-26707200D01*
X72942857Y-26707200D02*
X72990476Y-26659580D01*
X72990476Y-26659580D02*
X73038095Y-26564342D01*
X73038095Y-26564342D02*
X73038095Y-26469104D01*
X73038095Y-26469104D02*
X72990476Y-26373866D01*
X72990476Y-26373866D02*
X72942857Y-26326247D01*
X72942857Y-26326247D02*
X72847619Y-26278628D01*
X72847619Y-26278628D02*
X72657143Y-26231009D01*
X72657143Y-26231009D02*
X72561905Y-26183390D01*
X72561905Y-26183390D02*
X72514286Y-26135771D01*
X72514286Y-26135771D02*
X72466667Y-26040533D01*
X72466667Y-26040533D02*
X72466667Y-25945295D01*
X72466667Y-25945295D02*
X72514286Y-25850057D01*
X72514286Y-25850057D02*
X72561905Y-25802438D01*
X72561905Y-25802438D02*
X72657143Y-25754819D01*
X72657143Y-25754819D02*
X72895238Y-25754819D01*
X72895238Y-25754819D02*
X73038095Y-25802438D01*
X73371429Y-25754819D02*
X73609524Y-26754819D01*
X73609524Y-26754819D02*
X73800000Y-26040533D01*
X73800000Y-26040533D02*
X73990476Y-26754819D01*
X73990476Y-26754819D02*
X74228572Y-25754819D01*
X74514286Y-25754819D02*
X75180952Y-25754819D01*
X75180952Y-25754819D02*
X74752381Y-26754819D01*
X63666666Y-132074819D02*
X63666666Y-132789104D01*
X63666666Y-132789104D02*
X63619047Y-132931961D01*
X63619047Y-132931961D02*
X63523809Y-133027200D01*
X63523809Y-133027200D02*
X63380952Y-133074819D01*
X63380952Y-133074819D02*
X63285714Y-133074819D01*
X64666666Y-133074819D02*
X64095238Y-133074819D01*
X64380952Y-133074819D02*
X64380952Y-132074819D01*
X64380952Y-132074819D02*
X64285714Y-132217676D01*
X64285714Y-132217676D02*
X64190476Y-132312914D01*
X64190476Y-132312914D02*
X64095238Y-132360533D01*
D11*
%TO.C,SW8*%
X202700000Y-29400000D02*
X203300000Y-29400000D01*
X203000000Y-29700000D02*
X202700000Y-29400000D01*
X203300000Y-29400000D02*
X203000000Y-29700000D01*
X204400000Y-27600000D02*
X204400000Y-39400000D01*
X208500000Y-27600000D02*
X204400000Y-27600000D01*
X208500000Y-39400000D02*
X204400000Y-39400000D01*
X210000000Y-33500000D02*
X211000000Y-33500000D01*
X210500000Y-33000000D02*
X210500000Y-34000000D01*
X212500000Y-27600000D02*
X216600000Y-27600000D01*
X216600000Y-27600000D02*
X216600000Y-30000000D01*
X216600000Y-32200000D02*
X216600000Y-34800000D01*
X216600000Y-37000000D02*
X216600000Y-39400000D01*
X216600000Y-39400000D02*
X212500000Y-39400000D01*
X213500000Y-33500000D02*
G75*
G02*
X207500000Y-33500000I-3000000J0D01*
G01*
X207500000Y-33500000D02*
G75*
G02*
X213500000Y-33500000I3000000J0D01*
G01*
%TO.C,J2*%
X223620000Y-134620000D02*
X225000000Y-134620000D01*
X223620000Y-136000000D02*
X223620000Y-134620000D01*
X223620000Y-137270000D02*
X223620000Y-160240000D01*
X223620000Y-137270000D02*
X226380000Y-137270000D01*
X223620000Y-160240000D02*
X226380000Y-160240000D01*
X226380000Y-137270000D02*
X226380000Y-160240000D01*
%TO.C,SW7*%
X70700000Y-29400000D02*
X71300000Y-29400000D01*
X71000000Y-29700000D02*
X70700000Y-29400000D01*
X71300000Y-29400000D02*
X71000000Y-29700000D01*
X72400000Y-27600000D02*
X72400000Y-39400000D01*
X76500000Y-27600000D02*
X72400000Y-27600000D01*
X76500000Y-39400000D02*
X72400000Y-39400000D01*
X78000000Y-33500000D02*
X79000000Y-33500000D01*
X78500000Y-33000000D02*
X78500000Y-34000000D01*
X80500000Y-27600000D02*
X84600000Y-27600000D01*
X84600000Y-27600000D02*
X84600000Y-30000000D01*
X84600000Y-32200000D02*
X84600000Y-34800000D01*
X84600000Y-37000000D02*
X84600000Y-39400000D01*
X84600000Y-39400000D02*
X80500000Y-39400000D01*
X81500000Y-33500000D02*
G75*
G02*
X75500000Y-33500000I-3000000J0D01*
G01*
X75500000Y-33500000D02*
G75*
G02*
X81500000Y-33500000I3000000J0D01*
G01*
%TO.C,J1*%
X62620000Y-133620000D02*
X64000000Y-133620000D01*
X62620000Y-135000000D02*
X62620000Y-133620000D01*
X62620000Y-136270000D02*
X62620000Y-159240000D01*
X62620000Y-136270000D02*
X65380000Y-136270000D01*
X62620000Y-159240000D02*
X65380000Y-159240000D01*
X65380000Y-136270000D02*
X65380000Y-159240000D01*
%TD*%
M02*
