M48
; DRILL file {KiCad 9.0.7} date 2026-03-14T00:35:50-0400
; FORMAT={-:-/ absolute / metric / decimal}
; #@! TF.CreationDate,2026-03-14T00:35:50-04:00
; #@! TF.GenerationSoftware,Kicad,Pcbnew,9.0.7
; #@! TF.FileFunction,Plated,1,2,PTH
FMAT,2
METRIC
; #@! TA.AperFunction,Plated,PTH,ComponentDrill
T1C1.000
; #@! TA.AperFunction,Plated,PTH,ComponentDrill
T2C1.500
; #@! TA.AperFunction,Plated,PTH,ComponentDrill
T3C1.524
%
G90
G05
T1
X64.0Y-135.0
X64.0Y-137.54
X64.0Y-140.08
X64.0Y-142.62
X64.0Y-145.16
X64.0Y-147.7
X64.0Y-150.24
X64.0Y-152.78
X64.0Y-155.32
X64.0Y-157.86
X71.0Y-31.0
X71.0Y-33.5
X71.0Y-36.0
X85.5Y-31.0
X85.5Y-36.0
X203.0Y-31.0
X203.0Y-33.5
X203.0Y-36.0
X217.5Y-31.0
X217.5Y-36.0
X225.0Y-136.0
X225.0Y-138.54
X225.0Y-141.08
X225.0Y-143.62
X225.0Y-146.16
X225.0Y-148.7
X225.0Y-151.24
X225.0Y-153.78
X225.0Y-156.32
X225.0Y-158.86
T3
X84.19Y-81.46
X90.54Y-78.92
X103.19Y-132.46
X109.54Y-129.92
X122.19Y-81.46
X128.54Y-78.92
X143.46Y-27.92
X149.81Y-30.46
X158.19Y-81.46
X164.54Y-78.92
X177.19Y-132.46
X183.54Y-129.92
X196.19Y-81.46
X202.54Y-78.92
T2
G00X77.85Y-27.9
M15
G01X79.15Y-27.9
M16
G05
G00X77.85Y-39.1
M15
G01X79.15Y-39.1
M16
G05
G00X209.85Y-27.9
M15
G01X211.15Y-27.9
M16
G05
G00X209.85Y-39.1
M15
G01X211.15Y-39.1
M16
G05
M30
