M48
; DRILL file {KiCad 9.0.7} date 2026-03-14T00:35:50-0400
; FORMAT={-:-/ absolute / metric / decimal}
; #@! TF.CreationDate,2026-03-14T00:35:50-04:00
; #@! TF.GenerationSoftware,Kicad,Pcbnew,9.0.7
; #@! TF.FileFunction,NonPlated,1,2,NPTH
FMAT,2
METRIC
; #@! TA.AperFunction,NonPlated,NPTH,ComponentDrill
T1C1.702
; #@! TA.AperFunction,NonPlated,NPTH,ComponentDrill
T2C3.988
%
G90
G05
T1
X82.92Y-84.0
X93.08Y-84.0
X101.92Y-135.0
X112.08Y-135.0
X120.92Y-84.0
X131.08Y-84.0
X140.92Y-33.0
X151.08Y-33.0
X156.92Y-84.0
X167.08Y-84.0
X175.92Y-135.0
X186.08Y-135.0
X194.92Y-84.0
X205.08Y-84.0
T2
X88.0Y-84.0
X107.0Y-135.0
X126.0Y-84.0
X146.0Y-33.0
X162.0Y-84.0
X181.0Y-135.0
X200.0Y-84.0
M30
